<svg width="301" height="150" viewBox="0 0 301 150" fill="none" xmlns="http://www.w3.org/2000/svg">
<path opacity="0.125" fill-rule="evenodd" clip-rule="evenodd" d="M82.0835 35.0186C102.109 27.0858 133.982 37.4564 161.817 37.198C185.503 36.9781 211.078 28.5249 229.995 33.6456C249.175 38.8377 243.645 50.3137 244.56 59.5968C245.471 68.8259 249.411 78.5182 235.185 86.2616C219.772 94.6506 194.36 99.0185 168.703 100.886C140.139 102.965 105.025 105.319 86.8229 97.0599C68.9769 88.9627 91.3884 76.3496 90.554 65.4277C89.7413 54.7881 62.2968 42.8568 82.0835 35.0186Z" stroke="url(#paint0_linear_108_366)" stroke-opacity="0.23"/>
<path opacity="0.25" fill-rule="evenodd" clip-rule="evenodd" d="M91.3085 38.35C113.527 31.4743 141.876 43.2643 169.476 44.3521C192.961 45.2778 220.826 38.1554 237.967 44.1304C255.346 50.1887 246.378 61.2666 244.452 70.4877C242.537 79.6552 243.477 89.4267 227.049 96.3951C209.252 103.944 182.795 107.036 156.858 107.644C127.982 108.321 92.5476 108.953 77.07 99.9104C61.8955 91.0446 87.9011 79.6572 90.4077 68.82C92.8495 58.2629 69.3545 45.1437 91.3085 38.35Z" stroke="url(#paint1_linear_108_366)" stroke-opacity="0.23"/>
<path opacity="0.375" fill-rule="evenodd" clip-rule="evenodd" d="M99.0728 42.0688C123.117 36.337 147.519 49.3703 174.447 51.7778C197.361 53.8264 227.057 48.1227 242.164 54.8617C257.481 61.6944 245.242 72.2234 240.525 81.2548C235.836 90.2336 233.782 99.9478 215.429 106.051C195.547 112.662 168.471 114.445 142.668 113.796C113.94 113.073 78.7486 111.99 66.2211 102.296C53.939 92.7913 83.1003 82.7778 88.8836 72.1753C94.5174 61.8469 75.3153 47.7324 99.0728 42.0688Z" stroke="url(#paint2_linear_108_366)" stroke-opacity="0.23"/>
<path opacity="0.5" fill-rule="evenodd" clip-rule="evenodd" d="M105.276 46.1008C130.755 41.5808 150.846 55.6629 176.681 59.3428C198.664 62.4741 229.712 58.2539 242.556 65.6548C255.58 73.1588 240.281 82.9978 232.864 91.7154C225.489 100.382 220.49 109.904 200.513 115.066C178.871 120.657 151.609 121.121 126.346 119.236C98.2207 117.138 63.8266 114.372 54.4314 104.168C45.2202 94.1644 77.059 85.6501 86.0097 75.4278C94.7291 65.4696 80.1002 50.567 105.276 46.1008Z" stroke="url(#paint3_linear_108_366)" stroke-opacity="0.23"/>
<path opacity="0.625" fill-rule="evenodd" clip-rule="evenodd" d="M109.843 50.3677C136.351 47.1082 151.831 62.0287 176.17 66.9137C196.881 71.0706 228.788 68.3751 239.176 76.3261C249.71 84.3879 231.604 93.4073 221.612 101.693C211.678 109.93 203.822 119.128 182.542 123.287C159.487 127.793 132.467 126.946 108.14 123.868C81.0562 120.441 47.9974 116.052 41.8707 105.488C35.864 95.1305 69.87 88.2165 81.8359 78.5131C93.4926 69.0605 83.6501 53.5883 109.843 50.3677Z" stroke="url(#paint4_linear_108_366)" stroke-opacity="0.23"/>
<path opacity="0.75" fill-rule="evenodd" clip-rule="evenodd" d="M111.861 63.4302C138.984 61.46 149.622 76.996 172.09 83.0006C191.208 88.11 223.475 86.9562 231.251 95.3372C239.136 103.835 218.51 111.918 206.104 119.66C193.771 127.357 183.189 136.106 160.938 139.217C136.832 142.588 110.475 140.461 87.4602 136.249C61.8377 131.56 30.6263 125.632 27.8564 114.863C25.1408 104.304 60.78 99.0663 75.5683 90.012C89.9745 81.1917 85.0614 65.377 111.861 63.4302Z" stroke="url(#paint5_linear_108_366)" stroke-opacity="0.23"/>
<path opacity="0.875" fill-rule="evenodd" clip-rule="evenodd" d="M113.898 59.2832C141.218 58.611 146.854 74.5306 167.107 81.5516C184.341 87.526 216.471 87.9072 221.518 96.5915C226.635 105.397 203.809 112.442 189.183 119.538C174.643 126.592 161.498 134.774 138.621 136.808C113.836 139.013 88.5456 135.656 67.1962 130.388C43.4275 124.523 14.5416 117.165 15.1679 106.347C15.782 95.7409 52.5046 92.229 69.8853 83.9439C86.8167 75.8729 86.9038 59.9475 113.898 59.2832Z" stroke="url(#paint6_linear_108_366)" stroke-opacity="0.23"/>
<path fill-rule="evenodd" clip-rule="evenodd" d="M113.367 63.7692C140.47 64.3839 141.021 80.4493 158.752 88.3683C173.84 95.1068 205.347 96.9928 207.589 105.849C209.862 114.829 185.183 120.751 168.559 127.107C152.032 133.427 136.525 140.93 113.367 141.877C88.279 142.902 64.439 138.383 45.0778 132.152C23.5227 125.216 -2.60071 116.557 1.41151 105.849C5.34514 95.3512 42.5945 93.5887 62.3035 86.1808C81.503 78.9644 86.5877 63.1618 113.367 63.7692Z" stroke="url(#paint7_linear_108_366)" stroke-opacity="0.23"/>
<defs>
<linearGradient id="paint0_linear_108_366" x1="-45.746" y1="61.0008" x2="208.363" y2="234.695" gradientUnits="userSpaceOnUse">
<stop stop-color="#F86CAE"/>
<stop offset="1" stop-color="#F86CAE"/>
</linearGradient>
<linearGradient id="paint1_linear_108_366" x1="-43.0017" y1="57.8664" x2="145.493" y2="251.346" gradientUnits="userSpaceOnUse">
<stop stop-color="#F86CAE"/>
<stop offset="1" stop-color="#F86CAE"/>
</linearGradient>
<linearGradient id="paint2_linear_108_366" x1="-39.5426" y1="54.9027" x2="98.0524" y2="247.98" gradientUnits="userSpaceOnUse">
<stop stop-color="#F86CAE"/>
<stop offset="1" stop-color="#F86CAE"/>
</linearGradient>
<linearGradient id="paint3_linear_108_366" x1="-35.4296" y1="52.1425" x2="65.3821" y2="236.819" gradientUnits="userSpaceOnUse">
<stop stop-color="#F86CAE"/>
<stop offset="1" stop-color="#F86CAE"/>
</linearGradient>
<linearGradient id="paint4_linear_108_366" x1="-30.7332" y1="49.6152" x2="43.7596" y2="223.874" gradientUnits="userSpaceOnUse">
<stop stop-color="#F86CAE"/>
<stop offset="1" stop-color="#F86CAE"/>
</linearGradient>
<linearGradient id="paint5_linear_108_366" x1="-26.3968" y1="55.9881" x2="28.9513" y2="220.303" gradientUnits="userSpaceOnUse">
<stop stop-color="#F86CAE"/>
<stop offset="1" stop-color="#F86CAE"/>
</linearGradient>
<linearGradient id="paint6_linear_108_366" x1="-19.9183" y1="45.3591" x2="21.1" y2="201.101" gradientUnits="userSpaceOnUse">
<stop stop-color="#F86CAE"/>
<stop offset="1" stop-color="#F86CAE"/>
</linearGradient>
<linearGradient id="paint7_linear_108_366" x1="-13.9808" y1="43.6698" x2="15.9273" y2="192.452" gradientUnits="userSpaceOnUse">
<stop stop-color="#F86CAE"/>
<stop offset="1" stop-color="#F86CAE"/>
</linearGradient>
</defs>
</svg>
