<svg width="566" height="548" viewBox="0 0 566 548" fill="none" xmlns="http://www.w3.org/2000/svg">
<path opacity="0.0833333" fill-rule="evenodd" clip-rule="evenodd" d="M284.758 442.514C269.985 456.96 244.054 455.498 224.392 450.675C205.793 446.113 196.917 426.623 180.754 417.005C164.04 407.058 140.77 407.742 128.077 393.357C114.472 377.938 109.211 356.635 109.203 335.916C109.194 314.227 108.443 285.369 128.031 273.671C150.658 260.159 179.719 288.629 204.298 279.126C225.163 271.059 223.398 226.078 245.25 228.348C267.951 230.707 253.471 276.141 273.337 286.299C296.443 298.113 331.596 267.571 352.156 283.009C369.104 295.735 362.983 326.514 352.143 345.473C341.377 364.303 309.175 362.026 296.741 379.932C284.101 398.136 300.748 426.879 284.758 442.514Z" stroke="url(#paint0_linear_102_396)" stroke-opacity="0.83" stroke-width="2"/>
<path opacity="0.166667" fill-rule="evenodd" clip-rule="evenodd" d="M278.214 428.539C261.892 441.041 236.451 436.388 217.604 429.177C199.776 422.356 193.338 401.931 178.521 390.396C163.2 378.467 140.13 376.271 129.311 360.437C117.714 343.465 115.064 321.688 117.534 301.139C120.119 279.628 122.827 250.916 143.576 241.734C167.544 231.128 192.848 262.952 218.265 256.563C239.842 251.139 243.476 206.311 264.793 211.262C286.936 216.405 267.199 259.676 285.61 272.203C307.023 286.773 345.401 260.825 363.866 278.674C379.086 293.388 369.359 323.157 356.384 340.621C343.497 357.966 311.959 351.73 297.535 367.953C282.871 384.445 295.879 415.008 278.214 428.539Z" stroke="url(#paint1_linear_102_396)" stroke-opacity="0.83" stroke-width="2"/>
<path opacity="0.25" fill-rule="evenodd" clip-rule="evenodd" d="M273.606 414.106C255.989 424.503 231.426 416.758 213.682 407.286C196.897 398.326 192.993 377.269 179.748 364.002C166.051 350.282 143.536 345.267 134.754 328.226C125.341 309.961 125.339 288.029 130.245 267.945C135.381 246.921 141.503 218.767 163.093 212.209C188.034 204.633 209.198 239.32 235.063 236.106C257.019 233.378 265.991 189.349 286.445 196.882C307.692 204.707 283.008 245.212 299.682 259.905C319.077 276.995 360.088 255.969 376.177 275.95C389.439 292.42 376.26 320.76 361.351 336.491C346.543 352.115 316.15 342.049 299.959 356.371C283.499 370.931 292.674 402.853 273.606 414.106Z" stroke="url(#paint2_linear_102_396)" stroke-opacity="0.83" stroke-width="2"/>
<path opacity="0.333333" fill-rule="evenodd" clip-rule="evenodd" d="M270.965 399.457C252.32 407.619 229.008 396.928 212.636 385.356C197.15 374.41 195.836 353.034 184.364 338.247C172.499 322.955 150.879 315.222 144.267 297.236C137.18 277.957 139.825 256.191 147.092 236.859C154.699 216.622 164.141 189.43 186.244 185.563C211.777 181.097 228.483 218.111 254.402 218.087C276.405 218.066 290.575 175.468 309.856 185.447C329.885 195.813 300.63 232.991 315.316 249.613C332.398 268.947 375.419 253.099 388.889 274.897C399.992 292.865 383.563 319.378 366.947 333.166C350.444 346.86 321.658 333.151 303.947 345.384C285.942 357.819 291.146 390.623 270.965 399.457Z" stroke="url(#paint3_linear_102_396)" stroke-opacity="0.83" stroke-width="2"/>
<path opacity="0.416667" fill-rule="evenodd" clip-rule="evenodd" d="M270.292 384.835C250.899 390.667 229.189 377.218 214.435 363.74C200.479 350.991 201.777 329.614 192.248 313.541C182.394 296.919 161.995 286.612 157.652 267.955C152.997 247.958 158.249 226.675 167.767 208.371C177.731 189.21 190.349 163.37 212.634 162.222C238.376 160.895 250.372 199.668 275.956 202.798C297.674 205.455 316.829 164.898 334.648 177.149C353.157 189.875 319.772 223.217 332.25 241.503C346.762 262.771 391.145 252.276 401.794 275.552C410.573 294.738 391.139 319.054 373.067 330.717C355.118 342.301 328.37 325.191 309.406 335.177C290.126 345.329 291.281 378.522 270.292 384.835Z" stroke="url(#paint4_linear_102_396)" stroke-opacity="0.83" stroke-width="2"/>
<path opacity="0.5" fill-rule="evenodd" clip-rule="evenodd" d="M271.558 370.478C251.706 373.92 231.92 357.944 219.003 342.781C206.784 328.439 210.674 307.379 203.232 290.273C195.535 272.583 176.659 259.885 174.649 240.843C172.495 220.431 180.277 199.943 191.905 182.928C204.077 165.116 219.684 140.996 241.819 142.553C267.388 144.352 274.495 184.285 299.364 190.488C320.475 195.753 344.33 157.818 360.422 172.133C377.137 187.004 340.117 216.056 350.201 235.716C361.929 258.581 407.014 253.535 414.684 277.925C421.006 298.03 398.859 319.812 379.599 329.202C360.469 338.527 336.158 318.308 316.222 325.925C295.955 333.668 293.044 366.752 271.558 370.478Z" stroke="url(#paint5_linear_102_396)" stroke-opacity="0.83" stroke-width="2"/>
<path opacity="0.583333" fill-rule="evenodd" clip-rule="evenodd" d="M274.705 356.619C254.685 357.646 237.114 339.412 226.223 322.811C215.922 307.109 222.346 286.679 217.098 268.809C211.67 250.329 194.595 235.457 194.948 216.319C195.327 195.805 205.522 176.411 219.088 160.926C233.289 144.716 251.656 122.659 273.315 126.868C298.334 131.73 300.451 172.212 324.239 181.36C344.432 189.125 372.636 154.352 386.764 170.494C401.439 187.262 361.331 211.636 368.873 232.357C377.644 256.458 422.769 256.877 427.348 282.003C431.122 302.714 406.586 321.663 386.422 328.662C366.394 335.614 344.876 312.625 324.262 317.784C303.305 323.028 296.372 355.508 274.705 356.619Z" stroke="url(#paint6_linear_102_396)" stroke-opacity="0.83" stroke-width="2"/>
<path opacity="0.666667" fill-rule="evenodd" clip-rule="evenodd" d="M279.647 343.482C259.752 342.103 244.649 321.912 235.941 304.141C227.705 287.331 236.568 267.835 233.589 249.48C230.508 230.499 215.48 213.702 218.188 194.761C221.091 174.458 233.55 156.441 248.856 142.705C264.878 128.326 285.735 108.646 306.603 115.415C330.71 123.233 327.809 163.643 350.171 175.565C369.154 185.686 401.292 154.57 413.253 172.274C425.677 190.664 383.066 210.039 387.958 231.497C393.648 256.453 438.157 262.273 439.58 287.744C440.753 308.74 414.188 324.599 393.413 329.127C372.779 333.625 354.365 308.244 333.373 310.893C312.031 313.586 301.18 344.974 279.647 343.482Z" stroke="url(#paint7_linear_102_396)" stroke-opacity="0.83" stroke-width="2"/>
<path opacity="0.75" fill-rule="evenodd" clip-rule="evenodd" d="M286.274 331.274C266.789 327.534 254.368 305.716 247.965 287.058C241.909 269.41 253.079 251.138 252.408 232.585C251.714 213.399 238.947 194.954 243.967 176.497C249.349 156.714 263.888 140.337 280.71 128.544C298.319 116.199 321.361 99.1741 341.14 108.373C363.989 118.999 356.119 158.717 376.736 173.204C394.238 185.501 429.841 158.484 439.466 177.463C449.464 197.177 404.967 211.305 407.144 233.162C409.676 258.584 452.928 269.661 451.18 295.083C449.74 316.04 421.532 328.595 400.446 330.608C379.504 332.606 364.454 305.248 343.387 305.37C321.969 305.495 307.363 335.321 286.274 331.274Z" stroke="url(#paint8_linear_102_396)" stroke-opacity="0.83" stroke-width="2"/>
<path opacity="0.833333" fill-rule="evenodd" clip-rule="evenodd" d="M294.45 320.189C275.653 314.168 266.083 291.073 262.071 271.825C258.275 253.619 271.586 236.842 273.226 218.38C274.922 199.287 264.592 179.494 271.847 161.803C279.623 142.841 296.029 128.342 314.122 118.657C333.062 108.518 357.953 94.3887 376.364 105.854C397.631 119.099 384.92 157.517 403.502 174.322C419.276 188.587 457.825 166.05 464.983 185.998C472.418 206.72 426.678 215.429 426.116 237.345C425.462 262.834 466.843 278.951 461.959 303.933C457.933 324.526 428.489 333.613 407.396 333.1C386.445 332.591 374.965 303.695 354.124 301.312C332.937 298.89 314.795 326.706 294.45 320.189Z" stroke="url(#paint9_linear_102_396)" stroke-opacity="0.83" stroke-width="2"/>
<path opacity="0.916667" fill-rule="evenodd" clip-rule="evenodd" d="M304.018 310.401C286.173 302.209 279.58 278.206 278.004 258.672C276.515 240.195 291.767 225.163 295.687 207.077C299.739 188.374 291.982 167.55 301.359 150.895C311.41 133.042 329.442 120.633 348.544 113.19C368.54 105.399 394.92 94.3618 411.705 107.899C431.095 123.536 413.743 160.067 430.034 178.911C443.863 194.907 484.799 177.166 489.398 197.767C494.175 219.167 447.846 222.363 444.564 243.996C440.747 269.157 479.676 290.024 471.738 314.18C465.194 334.092 434.938 339.596 414.136 336.586C393.476 333.596 385.714 303.622 365.395 298.791C344.738 293.878 323.332 319.267 304.018 310.401Z" stroke="url(#paint10_linear_102_396)" stroke-opacity="0.83" stroke-width="2"/>
<path fill-rule="evenodd" clip-rule="evenodd" d="M314.802 302.062C298.156 291.84 294.616 267.309 295.487 247.796C296.312 229.338 313.28 216.274 319.41 198.844C325.749 180.82 320.662 159.296 332.016 143.929C344.186 127.458 363.579 117.319 383.415 112.22C404.178 106.882 431.664 99.0909 446.595 114.475C463.843 132.247 442.121 166.333 455.902 186.91C467.601 204.377 510.33 191.678 512.319 212.607C514.386 234.347 468.128 232.014 462.188 253.029C455.279 277.471 491.217 302.734 480.353 325.693C471.398 344.618 440.764 346.476 420.547 341.03C400.468 335.622 396.514 305.044 377.002 297.854C357.165 290.544 332.817 313.125 314.802 302.062Z" stroke="url(#paint11_linear_102_396)" stroke-opacity="0.83" stroke-width="2"/>
<defs>
<linearGradient id="paint0_linear_102_396" x1="447.052" y1="428.149" x2="136.343" y2="177.522" gradientUnits="userSpaceOnUse">
<stop stop-color="#F86CAE"/>
<stop offset="1" stop-color="#F86CAE"/>
</linearGradient>
<linearGradient id="paint1_linear_102_396" x1="440.257" y1="434.335" x2="162.075" y2="148.581" gradientUnits="userSpaceOnUse">
<stop stop-color="#F86CAE"/>
<stop offset="1" stop-color="#F86CAE"/>
</linearGradient>
<linearGradient id="paint2_linear_102_396" x1="432.916" y1="439.785" x2="191.196" y2="123.092" gradientUnits="userSpaceOnUse">
<stop stop-color="#F86CAE"/>
<stop offset="1" stop-color="#F86CAE"/>
</linearGradient>
<linearGradient id="paint3_linear_102_396" x1="425.123" y1="444.436" x2="223.264" y2="101.428" gradientUnits="userSpaceOnUse">
<stop stop-color="#F86CAE"/>
<stop offset="1" stop-color="#F86CAE"/>
</linearGradient>
<linearGradient id="paint4_linear_102_396" x1="416.981" y1="448.239" x2="257.798" y2="83.9086" gradientUnits="userSpaceOnUse">
<stop stop-color="#F86CAE"/>
<stop offset="1" stop-color="#F86CAE"/>
</linearGradient>
<linearGradient id="paint5_linear_102_396" x1="408.597" y1="451.158" x2="294.285" y2="70.7923" gradientUnits="userSpaceOnUse">
<stop stop-color="#F86CAE"/>
<stop offset="1" stop-color="#F86CAE"/>
</linearGradient>
<linearGradient id="paint6_linear_102_396" x1="400.083" y1="453.171" x2="332.182" y2="62.2737" gradientUnits="userSpaceOnUse">
<stop stop-color="#F86CAE"/>
<stop offset="1" stop-color="#F86CAE"/>
</linearGradient>
<linearGradient id="paint7_linear_102_396" x1="391.551" y1="454.269" x2="370.931" y2="58.4815" gradientUnits="userSpaceOnUse">
<stop stop-color="#F86CAE"/>
<stop offset="1" stop-color="#F86CAE"/>
</linearGradient>
<linearGradient id="paint8_linear_102_396" x1="383.114" y1="454.456" x2="409.96" y2="59.4765" gradientUnits="userSpaceOnUse">
<stop stop-color="#F86CAE"/>
<stop offset="1" stop-color="#F86CAE"/>
</linearGradient>
<linearGradient id="paint9_linear_102_396" x1="374.885" y1="453.753" x2="448.698" y2="65.251" gradientUnits="userSpaceOnUse">
<stop stop-color="#F86CAE"/>
<stop offset="1" stop-color="#F86CAE"/>
</linearGradient>
<linearGradient id="paint10_linear_102_396" x1="366.97" y1="452.192" x2="486.578" y2="75.729" gradientUnits="userSpaceOnUse">
<stop stop-color="#F86CAE"/>
<stop offset="1" stop-color="#F86CAE"/>
</linearGradient>
<linearGradient id="paint11_linear_102_396" x1="359.474" y1="449.818" x2="523.048" y2="90.7677" gradientUnits="userSpaceOnUse">
<stop stop-color="#F86CAE"/>
<stop offset="1" stop-color="#F86CAE"/>
</linearGradient>
</defs>
</svg>
